<?xml version="1.0" encoding="iso-8859-1"?>
<!-- Generator: Adobe Illustrator 16.0.0, SVG Export Plug-In . SVG Version: 6.00 Build 0)  -->
<!DOCTYPE svg PUBLIC "-//W3C//DTD SVG 1.1//EN" "http://www.w3.org/Graphics/SVG/1.1/DTD/svg11.dtd">
<svg version="1.1" id="Capa_1" xmlns="http://www.w3.org/2000/svg" xmlns:xlink="http://www.w3.org/1999/xlink" x="0px" y="0px"
	 width="257.798px" height="257.798px" viewBox="0 0 257.798 257.798" style="enable-background:new 0 0 257.798 257.798;"
	 xml:space="preserve">
<g>
	<g>
		<path d="M166.969,160.691h-18.471c1.615-26.632,10.311-48.501,18.471-63.585V160.691z"/>
		<path d="M184.612,244.957V64.96c0-3.639-2.234-6.894-5.633-8.215c-3.375-1.327-7.229-0.423-9.691,2.258
			c-1.586,1.714-38.681,42.949-38.681,107.171c0,4.876,3.948,8.814,8.824,8.814h27.551v77.06
			c-12.046,3.718-24.818,5.741-38.059,5.741c-8.884,0-17.555-0.895-25.935-2.618l-0.64-117.172l22.677-17.792
			c2.126-1.667,3.375-4.236,3.375-6.936V64.96c0-4.87-3.955-8.818-8.818-8.818c-4.876,0-8.824,3.948-8.824,8.818v44.027
			l-8.539,6.696l-0.276-50.777c-0.033-4.846-3.978-8.764-8.824-8.764c-0.018,0-0.03,0-0.051,0c-4.87,0.024-8.797,3.99-8.767,8.863
			l0.276,51.106l-9.094-7.125V64.96c0-4.87-3.954-8.818-8.818-8.818c-4.876,0-8.824,3.948-8.824,8.818v48.312
			c0,2.693,1.243,5.263,3.384,6.936l23.464,18.416l0.609,111.414C35.65,232.106,0,184.656,0,128.908
			C0,57.82,57.811,0.009,128.899,0.009c71.073,0,128.899,57.812,128.899,128.899C257.816,180.021,227.833,224.138,184.612,244.957z"
			/>
	</g>
</g>
<g>
</g>
<g>
</g>
<g>
</g>
<g>
</g>
<g>
</g>
<g>
</g>
<g>
</g>
<g>
</g>
<g>
</g>
<g>
</g>
<g>
</g>
<g>
</g>
<g>
</g>
<g>
</g>
<g>
</g>
</svg>
