<?xml version="1.0" encoding="iso-8859-1"?>
<!-- Generator: Adobe Illustrator 18.1.1, SVG Export Plug-In . SVG Version: 6.00 Build 0)  -->
<svg version="1.1" id="Capa_1" xmlns="http://www.w3.org/2000/svg" xmlns:xlink="http://www.w3.org/1999/xlink" x="0px" y="0px"
	 viewBox="0 0 369.946 369.946" style="enable-background:new 0 0 369.946 369.946;" xml:space="preserve">
<g>
	<g>
		<path style="fill:#010002;" d="M184.973,0C82.981,0,0,82.981,0,184.973s82.981,184.973,184.973,184.973
			c101.998,0,184.973-82.975,184.973-184.973S286.971,0,184.973,0z M163.092,149.118h-29.339v147.286H121.82V149.118H92.486V73.542
			h11.934v63.649h17.405V73.542h11.934v63.649h17.405V73.542h11.934v75.576H163.092z M229.724,190.94v105.464h-11.934V73.542h11.934
			v3.699l50.981,113.699C280.705,190.94,229.724,190.94,229.724,190.94z"/>
		<polygon style="fill:#010002;" points="229.724,179.006 262.28,179.006 229.724,106.401 		"/>
	</g>
</g>
<g>
</g>
<g>
</g>
<g>
</g>
<g>
</g>
<g>
</g>
<g>
</g>
<g>
</g>
<g>
</g>
<g>
</g>
<g>
</g>
<g>
</g>
<g>
</g>
<g>
</g>
<g>
</g>
<g>
</g>
</svg>
