<svg id="Capa_1" enable-background="new 0 0 512 512" height="512" viewBox="0 0 512 512" width="512" xmlns="http://www.w3.org/2000/svg"><g><g><path d="m256.18 512c-4.24 0-8.096-2.786-9.46-6.789-1.288-3.78-.145-8.094 2.866-10.727 3.279-2.868 8.171-3.26 11.87-.97 3.444 2.132 5.296 6.286 4.564 10.275-.861 4.687-5.066 8.211-9.84 8.211z"/><path d="m425.384 439.495h-72.469c12.217-23.06 15.642-42.759 10.479-59.879-8.646-28.667-38.816-41.651-63.058-52.083-10.452-4.498-20.325-8.747-25.362-13.043-24.528-20.926-18.638-48.815-17.262-54.036.163-.317.311-.645.442-.983l21.969-56.96h6.041c13.649 0 24.755-11.105 24.755-24.755v-18.336c6.188-4.504 10.219-11.804 10.219-20.026v-23.709c14.291-1.217 25.548-13.236 25.548-27.836v-77.849c0-5.523-4.478-10-10-10h-199.686c-5.522 0-10 4.477-10 10v77.849c0 14.6 11.257 26.62 25.548 27.836v23.709c0 8.223 4.03 15.522 10.219 20.026v18.336c0 13.65 11.105 24.755 24.755 24.755h6.04l21.969 56.96c.267.693.606 1.343 1.006 1.944-1.103.747-2.21 1.525-3.315 2.335-21.799 15.983-32.464 36.577-30.844 59.554.182 2.585.526 5.053 1.016 7.412-7.983 9.782-15.373 24.095-13.858 42.72-15.354 8.316-23.162 21.14-23.229 38.198-.039 10.113 3.116 19.776 8.998 27.86h-68.689c-20.19 0-36.616 16.426-36.616 36.617v25.889c0 5.523 4.478 10 10 10h150.794c5.522 0 10-4.477 10-10s-4.478-10-10-10h-140.794v-15.888c0-9.163 7.454-16.617 16.616-16.617h338.768c9.162 0 16.616 7.454 16.616 16.617v15.888h-140.794c-5.522 0-10 4.477-10 10s4.478 10 10 10h150.794c5.522 0 10-4.477 10-10v-25.888c0-20.191-16.426-36.617-36.616-36.617zm-252.836-300.101v-23.607h128.589v23.607c0 2.622-2.133 4.755-4.755 4.755h-119.079c-2.622 0-4.755-2.133-4.755-4.755zm-25.548-51.545v-67.849h179.685v67.849c0 4.377-3.562 7.938-7.938 7.938h-163.809c-4.377 0-7.938-3.561-7.938-7.938zm35.767 89.907v-13.607h108.151v13.607c0 2.622-2.133 4.755-4.755 4.755h-98.642c-2.622 0-4.754-2.133-4.754-4.755zm32.231 24.755h43.688l-16.724 43.362h-10.239zm21.129 70.425c-.222 15.732 4.125 38.222 25.866 56.77 7.336 6.258 18.041 10.864 30.437 16.199 21.495 9.25 45.857 19.734 51.815 39.487 3.405 11.292.721 25.625-7.981 42.751-9.285-14.08-27.985-33.869-65.414-53.409-6.615-3.454-13.595-6.588-20.344-9.619-28.997-13.021-46.709-22.428-48.176-43.218-1.759-24.925 18.744-40.766 33.797-48.961zm6.186 110.424c6.484 2.912 13.189 5.922 19.28 9.103 34.448 17.984 50.618 35.761 58.024 47.032h-7.181c-35.373 0-65.771-6.918-87.906-20.006-23.224-13.731-30.804-29.819-33.255-38.188-3.097-10.564-2.391-20.425 2.085-29.448 11.804 14.825 31.161 23.517 48.953 31.507zm-47.7 56.135c-7.669 0-14.869-2.989-20.275-8.417-5.208-5.228-8.06-12.105-8.031-19.365.025-6.143 1.219-12.433 8.264-17.828 6.859 16.243 21.391 33.066 44.945 45.61z"/></g></g></svg>