<?xml version="1.0" encoding="iso-8859-1"?>
<!-- Generator: Adobe Illustrator 19.0.0, SVG Export Plug-In . SVG Version: 6.00 Build 0)  -->
<svg version="1.1" id="Capa_1" xmlns="http://www.w3.org/2000/svg" xmlns:xlink="http://www.w3.org/1999/xlink" x="0px" y="0px"
	 viewBox="0 0 512 512" style="enable-background:new 0 0 512 512;" xml:space="preserve">
<g>
	<g>
		<g>
			<path d="M295.608,385.33c-32.911-1.808-50.021-5.388-78.244-13.253c-3.993-1.111-8.127,1.221-9.238,5.211
				c-1.112,3.99,1.221,8.126,5.211,9.238c28.763,8.016,47.35,11.908,81.449,13.78c0.14,0.008,0.279,0.012,0.418,0.012
				c3.954,0,7.262-3.093,7.482-7.089C302.913,389.094,299.744,385.557,295.608,385.33z"/>
			<path d="M386.347,230.27c-1.454-3.878-5.78-5.842-9.656-4.389c-3.878,1.454-5.844,5.777-4.389,9.656
				c6.375,17,16.636,62.076,20.254,85.686c0.568,3.71,3.764,6.365,7.404,6.365c0.377,0,0.76-0.028,1.145-0.088
				c4.095-0.627,6.905-4.455,6.278-8.549C403.982,296.764,393.652,249.75,386.347,230.27z"/>
			<path d="M509.922,453.201l-11.431-25.61c-9.724-21.788-23.157-41.416-39.919-58.374c-9.551-17.93-12.55-47.722-16.01-82.146
				c-6.494-64.637-14.576-145.079-71.192-201.697c-45.598-45.597-119.329-46.333-165.836-2.207
				c-5.985,0.71-11.856,1.778-17.594,3.191c-9.596-16.953-19.355-32.405-29.056-45.966c-2.41-3.369-7.094-4.147-10.464-1.736
				c-3.369,2.409-4.146,7.095-1.736,10.463c8.841,12.36,17.753,26.374,26.553,41.725c-7.421,2.722-14.565,6.064-21.386,10.003
				l-15.602-21.652c-2.421-3.359-7.109-4.12-10.47-1.7c-3.36,2.422-4.122,7.109-1.7,10.47l15.198,21.093
				c-5.71,4.19-11.136,8.843-16.241,13.948c-5.105,5.105-9.758,10.532-13.948,16.242l-21.093-15.198
				c-3.36-2.422-8.048-1.66-10.469,1.7c-2.421,3.361-1.66,8.048,1.701,10.47l21.652,15.602c-3.939,6.82-7.282,13.964-10.004,21.386
				c-30.879-17.69-55.717-35.446-73.881-52.849c-2.394-2.293-2.059-5.072-1.804-6.161c0.262-1.117,1.225-3.827,4.495-4.851
				c2.267-0.71,4.478-1.407,6.572-2.07c12.225-3.872,21.253-14.58,22.998-27.279l1.081-7.868
				c1.553-11.297,10.526-20.272,21.822-21.823l7.871-1.082c12.698-1.745,23.407-10.771,27.279-22.998
				c0.662-2.092,1.359-4.303,2.069-6.57c1.013-3.238,3.674-4.184,4.771-4.44c1.123-0.264,3.997-0.602,6.411,1.925
				c1.484,1.554,2.989,3.174,4.472,4.818c2.775,3.075,7.518,3.319,10.592,0.544c3.076-2.774,3.319-7.518,0.544-10.593
				c-1.579-1.75-3.182-3.476-4.765-5.134c-5.381-5.628-13.104-7.934-20.672-6.167c-7.506,1.756-13.364,7.201-15.671,14.566
				c-0.704,2.25-1.396,4.445-2.054,6.523c-2.133,6.732-8.029,11.704-15.021,12.665l-7.87,1.082
				c-17.932,2.464-32.176,16.709-34.641,34.642l-1.081,7.868c-0.961,6.992-5.933,12.888-12.664,15.021
				c-2.079,0.658-4.275,1.35-6.527,2.056c-7.383,2.312-12.847,8.195-14.617,15.742c-1.755,7.484,0.5,15.117,6.031,20.418
				c19.627,18.803,46.455,37.869,79.772,56.723c-1.413,5.736-2.481,11.605-3.191,17.59c-44.124,46.508-43.388,120.238,2.209,165.836
				c56.616,56.615,137.058,64.697,201.694,71.192c34.441,3.461,64.246,6.461,82.174,16.024
				c12.485,12.337,26.553,22.973,41.851,31.596c1.164,0.656,2.429,0.968,3.676,0.968c2.619,0,5.163-1.374,6.54-3.818
				c2.034-3.607,0.758-8.182-2.85-10.216c-12.275-6.92-23.689-15.245-34.039-24.778l67.895-67.895
				c13.435,14.573,24.337,31.12,32.448,49.292l11.431,25.61c1.543,3.457,0.781,7.579-1.896,10.256l-24.728,24.728
				c-2.676,2.677-6.797,3.441-10.256,1.896l-9.175-4.096c-3.782-1.688-8.217,0.01-9.906,3.791c-1.689,3.783,0.009,8.218,3.791,9.906
				l9.175,4.096c3.136,1.399,6.478,2.078,9.802,2.078c6.316,0,12.561-2.451,17.175-7.064l24.728-24.729
				C511.977,473.136,513.981,462.294,509.922,453.201z M102.267,186.679c0.063-0.184,0.117-0.369,0.165-0.555
				c3.326-11.302,8.173-21.976,14.494-31.804c0.029-0.039,0.063-0.072,0.092-0.112c0.146-0.202,0.279-0.41,0.402-0.621
				c4.657-7.126,10.066-13.815,16.223-19.973c6.248-6.248,13.042-11.732,20.289-16.436c0.101-0.066,0.208-0.115,0.307-0.186
				c0.056-0.04,0.106-0.087,0.161-0.128c9.784-6.286,20.407-11.11,31.651-14.43c0.133-0.033,0.265-0.078,0.397-0.118
				c1.13-0.33,2.265-0.646,3.408-0.945c-4.129,5.91-7.717,12.187-10.724,18.803c-12.979,5.898-24.673,14.007-34.797,24.132
				c-10.124,10.125-18.234,21.819-24.133,34.798c-6.614,3.006-12.891,6.594-18.802,10.723
				C101.675,188.772,101.965,187.723,102.267,186.679z M372.246,443.298c-20.492-9.344-49.957-12.305-83.649-15.69
				c-62.264-6.256-139.755-14.042-192.586-66.874c-40.498-40.497-40.498-106.394,0-146.891c7.66-7.66,16.364-13.973,25.915-18.882
				c10.392,25.207,25.221,52.335,38.146,69.51c1.474,1.959,3.722,2.99,5.998,2.99c1.57,0,3.153-0.49,4.504-1.508
				c3.31-2.49,3.974-7.192,1.483-10.502c-12.972-17.237-28.032-45.234-37.999-70.51c5.138-11.183,12.137-21.283,20.884-30.029
				c8.745-8.745,18.845-15.745,30.028-20.883c25.276,9.966,53.272,25.026,70.51,37.999c1.351,1.018,2.934,1.508,4.504,1.508
				c2.276,0,4.524-1.032,5.999-2.99c2.491-3.31,1.827-8.012-1.483-10.502c-17.177-12.926-44.303-27.755-69.51-38.147
				c4.908-9.551,11.22-18.253,18.881-25.913c20.252-20.252,46.845-30.374,73.446-30.374c26.595,0,53.199,10.126,73.445,30.373
				c52.833,52.833,60.618,130.322,66.874,192.587c3.385,33.691,6.346,63.156,15.69,83.648L372.246,443.298z"/>
		</g>
	</g>
</g>
<g>
</g>
<g>
</g>
<g>
</g>
<g>
</g>
<g>
</g>
<g>
</g>
<g>
</g>
<g>
</g>
<g>
</g>
<g>
</g>
<g>
</g>
<g>
</g>
<g>
</g>
<g>
</g>
<g>
</g>
</svg>
